<?xml version="1.0" encoding="UTF-8" standalone="no"?>
<!DOCTYPE svg PUBLIC "-//W3C//DTD SVG 1.1//EN" "http://www.w3.org/Graphics/SVG/1.1/DTD/svg11.dtd">
<svg width="100%" height="100%" viewBox="0 0 643 128" version="1.1" xmlns="http://www.w3.org/2000/svg" xmlns:xlink="http://www.w3.org/1999/xlink" xml:space="preserve" xmlns:serif="http://www.serif.com/" style="fill-rule:evenodd;clip-rule:evenodd;stroke-linejoin:round;stroke-miterlimit:2;">
    <g transform="matrix(0.510685,0,0,0.510685,-291.784024,-368.136381)">
        <g transform="matrix(244.308112,0,0,244.308112,843,914)">
            <path d="M0.088,-0L0.088,-0.7L0.381,-0.7C0.433,-0.7 0.48,-0.691 0.522,-0.674C0.565,-0.657 0.601,-0.633 0.632,-0.602C0.663,-0.571 0.687,-0.534 0.704,-0.491C0.72,-0.449 0.729,-0.402 0.729,-0.35C0.729,-0.299 0.72,-0.252 0.704,-0.209C0.687,-0.166 0.663,-0.129 0.632,-0.098C0.602,-0.067 0.565,-0.043 0.522,-0.026C0.48,-0.009 0.433,-0 0.381,-0L0.088,-0ZM0.258,-0.116L0.235,-0.15L0.376,-0.15C0.404,-0.15 0.429,-0.155 0.451,-0.164C0.473,-0.174 0.492,-0.187 0.508,-0.205C0.523,-0.222 0.536,-0.243 0.544,-0.268C0.552,-0.293 0.557,-0.32 0.557,-0.35C0.557,-0.38 0.552,-0.407 0.544,-0.432C0.536,-0.456 0.523,-0.477 0.507,-0.495C0.492,-0.512 0.473,-0.526 0.451,-0.536C0.429,-0.545 0.404,-0.55 0.376,-0.55L0.232,-0.55L0.258,-0.582L0.258,-0.116Z" style="fill-rule:nonzero;"/>
        </g>
        <g transform="matrix(244.308112,0,0,244.308112,1031.63324,914)">
            <path d="M0.324,0.01C0.265,0.01 0.214,-0.002 0.171,-0.025C0.128,-0.049 0.094,-0.081 0.07,-0.122C0.046,-0.163 0.034,-0.21 0.034,-0.263C0.034,-0.304 0.041,-0.341 0.054,-0.375C0.068,-0.409 0.086,-0.439 0.11,-0.464C0.134,-0.489 0.163,-0.508 0.196,-0.522C0.229,-0.535 0.265,-0.542 0.304,-0.542C0.341,-0.542 0.375,-0.535 0.406,-0.522C0.437,-0.509 0.464,-0.49 0.487,-0.466C0.509,-0.442 0.527,-0.414 0.539,-0.381C0.551,-0.348 0.556,-0.313 0.555,-0.274L0.554,-0.231L0.131,-0.231L0.108,-0.321L0.424,-0.321L0.407,-0.302L0.407,-0.322C0.406,-0.339 0.401,-0.354 0.392,-0.367C0.383,-0.38 0.371,-0.39 0.356,-0.397C0.341,-0.404 0.325,-0.408 0.306,-0.408C0.28,-0.408 0.258,-0.403 0.239,-0.393C0.221,-0.382 0.207,-0.367 0.198,-0.347C0.189,-0.328 0.184,-0.304 0.184,-0.275C0.184,-0.246 0.19,-0.22 0.203,-0.199C0.215,-0.177 0.233,-0.16 0.257,-0.148C0.28,-0.136 0.309,-0.13 0.341,-0.13C0.364,-0.13 0.384,-0.133 0.402,-0.14C0.42,-0.146 0.439,-0.158 0.459,-0.174L0.534,-0.068C0.513,-0.05 0.491,-0.035 0.468,-0.024C0.444,-0.013 0.421,-0.004 0.397,0.002C0.372,0.007 0.348,0.01 0.324,0.01Z" style="fill-rule:nonzero;"/>
        </g>
        <g transform="matrix(244.308112,0,0,244.308112,1174.797793,914)">
            <path d="M0.104,-0L0.104,-0.557C0.104,-0.592 0.112,-0.623 0.127,-0.651C0.142,-0.679 0.163,-0.701 0.19,-0.718C0.217,-0.734 0.248,-0.742 0.284,-0.742C0.309,-0.742 0.332,-0.739 0.354,-0.731C0.375,-0.723 0.394,-0.713 0.411,-0.7L0.365,-0.583C0.357,-0.588 0.348,-0.591 0.34,-0.594C0.332,-0.597 0.324,-0.598 0.318,-0.598C0.306,-0.598 0.296,-0.596 0.288,-0.592C0.28,-0.588 0.274,-0.582 0.271,-0.573C0.267,-0.565 0.265,-0.555 0.265,-0.543L0.265,-0L0.104,-0ZM0.027,-0.384L0.027,-0.516L0.374,-0.516L0.374,-0.384L0.027,-0.384Z" style="fill-rule:nonzero;"/>
        </g>
        <g transform="matrix(244.308112,0,0,244.308112,1265.924719,914)">
            <path d="M0.321,0.01C0.266,0.01 0.217,-0.002 0.174,-0.026C0.13,-0.05 0.096,-0.082 0.072,-0.124C0.047,-0.165 0.034,-0.212 0.034,-0.266C0.034,-0.319 0.047,-0.367 0.072,-0.408C0.096,-0.449 0.13,-0.482 0.174,-0.506C0.217,-0.53 0.266,-0.542 0.321,-0.542C0.376,-0.542 0.425,-0.53 0.468,-0.506C0.511,-0.482 0.545,-0.449 0.57,-0.408C0.594,-0.367 0.607,-0.319 0.607,-0.266C0.607,-0.212 0.594,-0.165 0.57,-0.124C0.545,-0.082 0.511,-0.05 0.468,-0.026C0.425,-0.002 0.376,0.01 0.321,0.01ZM0.321,-0.128C0.345,-0.128 0.366,-0.134 0.385,-0.146C0.404,-0.158 0.418,-0.174 0.429,-0.195C0.439,-0.216 0.444,-0.24 0.444,-0.266C0.444,-0.293 0.439,-0.317 0.429,-0.338C0.418,-0.359 0.404,-0.375 0.385,-0.387C0.366,-0.399 0.345,-0.405 0.321,-0.405C0.297,-0.405 0.276,-0.399 0.257,-0.387C0.238,-0.375 0.223,-0.358 0.212,-0.337C0.202,-0.316 0.196,-0.293 0.197,-0.266C0.196,-0.24 0.202,-0.216 0.212,-0.195C0.223,-0.174 0.238,-0.158 0.257,-0.146C0.276,-0.134 0.297,-0.128 0.321,-0.128Z" style="fill-rule:nonzero;"/>
        </g>
        <g transform="matrix(244.308112,0,0,244.308112,1422.485749,914)">
            <path d="M0.071,-0L0.071,-0.531L0.223,-0.531L0.23,-0.358L0.2,-0.391C0.208,-0.42 0.221,-0.445 0.239,-0.468C0.258,-0.491 0.279,-0.509 0.304,-0.522C0.329,-0.535 0.355,-0.542 0.383,-0.542C0.395,-0.542 0.406,-0.541 0.416,-0.539C0.427,-0.537 0.436,-0.535 0.445,-0.532L0.401,-0.355C0.394,-0.36 0.384,-0.363 0.372,-0.367C0.359,-0.37 0.346,-0.371 0.333,-0.371C0.318,-0.371 0.305,-0.369 0.292,-0.364C0.28,-0.359 0.269,-0.351 0.26,-0.342C0.251,-0.333 0.244,-0.321 0.239,-0.309C0.234,-0.296 0.232,-0.282 0.232,-0.266L0.232,-0L0.071,-0Z" style="fill-rule:nonzero;"/>
        </g>
        <g transform="matrix(244.308112,0,0,244.308112,1529.900379,914)">
            <path d="M0.314,0.23C0.27,0.23 0.227,0.224 0.185,0.211C0.142,0.198 0.107,0.182 0.08,0.162L0.136,0.05C0.15,0.059 0.166,0.068 0.182,0.075C0.199,0.082 0.217,0.087 0.236,0.091C0.254,0.095 0.274,0.097 0.293,0.097C0.327,0.097 0.354,0.092 0.376,0.082C0.398,0.072 0.414,0.057 0.424,0.037C0.435,0.016 0.44,-0.009 0.44,-0.04L0.44,-0.129L0.471,-0.124C0.466,-0.102 0.455,-0.082 0.437,-0.064C0.419,-0.046 0.396,-0.031 0.369,-0.021C0.342,-0.01 0.314,-0.004 0.285,-0.004C0.236,-0.004 0.193,-0.016 0.156,-0.038C0.118,-0.06 0.089,-0.091 0.067,-0.131C0.045,-0.17 0.034,-0.216 0.034,-0.268C0.034,-0.322 0.045,-0.369 0.066,-0.41C0.088,-0.451 0.117,-0.483 0.154,-0.507C0.191,-0.53 0.233,-0.542 0.28,-0.542C0.3,-0.542 0.319,-0.54 0.338,-0.535C0.356,-0.531 0.373,-0.525 0.389,-0.517C0.404,-0.509 0.418,-0.5 0.43,-0.489C0.443,-0.479 0.453,-0.468 0.461,-0.456C0.468,-0.444 0.474,-0.432 0.476,-0.419L0.443,-0.411L0.449,-0.531L0.601,-0.531L0.601,-0.043C0.601,0 0.595,0.039 0.581,0.073C0.568,0.106 0.549,0.135 0.525,0.159C0.5,0.182 0.47,0.2 0.434,0.212C0.399,0.224 0.359,0.23 0.314,0.23ZM0.318,-0.128C0.344,-0.128 0.367,-0.134 0.386,-0.145C0.405,-0.157 0.419,-0.173 0.429,-0.194C0.44,-0.214 0.445,-0.239 0.445,-0.267C0.445,-0.295 0.44,-0.32 0.429,-0.341C0.419,-0.362 0.404,-0.378 0.385,-0.39C0.367,-0.401 0.344,-0.407 0.318,-0.407C0.293,-0.407 0.271,-0.401 0.252,-0.39C0.234,-0.378 0.219,-0.361 0.209,-0.34C0.198,-0.319 0.193,-0.295 0.193,-0.267C0.193,-0.239 0.198,-0.215 0.209,-0.194C0.219,-0.173 0.234,-0.157 0.252,-0.145C0.271,-0.134 0.293,-0.128 0.318,-0.128Z" style="fill-rule:nonzero;"/>
        </g>
        <g transform="matrix(244.308112,0,0,244.308112,1693.36532,914)">
            <path d="M0.324,0.01C0.265,0.01 0.214,-0.002 0.171,-0.025C0.128,-0.049 0.094,-0.081 0.07,-0.122C0.046,-0.163 0.034,-0.21 0.034,-0.263C0.034,-0.304 0.041,-0.341 0.054,-0.375C0.068,-0.409 0.086,-0.439 0.11,-0.464C0.134,-0.489 0.163,-0.508 0.196,-0.522C0.229,-0.535 0.265,-0.542 0.304,-0.542C0.341,-0.542 0.375,-0.535 0.406,-0.522C0.437,-0.509 0.464,-0.49 0.487,-0.466C0.509,-0.442 0.527,-0.414 0.539,-0.381C0.551,-0.348 0.556,-0.313 0.555,-0.274L0.554,-0.231L0.131,-0.231L0.108,-0.321L0.424,-0.321L0.407,-0.302L0.407,-0.322C0.406,-0.339 0.401,-0.354 0.392,-0.367C0.383,-0.38 0.371,-0.39 0.356,-0.397C0.341,-0.404 0.325,-0.408 0.306,-0.408C0.28,-0.408 0.258,-0.403 0.239,-0.393C0.221,-0.382 0.207,-0.367 0.198,-0.347C0.189,-0.328 0.184,-0.304 0.184,-0.275C0.184,-0.246 0.19,-0.22 0.203,-0.199C0.215,-0.177 0.233,-0.16 0.257,-0.148C0.28,-0.136 0.309,-0.13 0.341,-0.13C0.364,-0.13 0.384,-0.133 0.402,-0.14C0.42,-0.146 0.439,-0.158 0.459,-0.174L0.534,-0.068C0.513,-0.05 0.491,-0.035 0.468,-0.024C0.444,-0.013 0.421,-0.004 0.397,0.002C0.372,0.007 0.348,0.01 0.324,0.01Z" style="fill-rule:nonzero;"/>
        </g>
        <g transform="matrix(244.308112,0,0,244.308112,1836.529874,914)">
        </g>
    </g>
    <g transform="matrix(0.013388,0,0,0.013388,53.162854,53.162854)">
        <g transform="matrix(1,0,0,1,-3970.833333,-3970.833333)">
            <clipPath id="_clip1">
                <rect x="0" y="0" width="7941.667" height="7941.667"/>
            </clipPath>
            <g clip-path="url(#_clip1)">
                <g transform="matrix(4.166667,0,0,4.166667,0,0)">
                    <path d="M106.127,105.939C-64.894,276.855 -22.848,603.14 186.435,952.422C-19.167,1295.192 -67.101,1626.094 106.127,1799.336C277.149,1970.463 603.517,1928.312 952.611,1719.028C1295.38,1924.631 1626.283,1972.564 1799.525,1799.336C1970.546,1628.419 1928.606,1302.134 1719.217,952.853C1924.819,610.083 1972.753,279.18 1799.525,105.939C1687.262,-6.324 1506.995,-27.345 1294.358,33.305C1258.62,43.396 1237.91,80.711 1248.106,116.45C1258.303,152.083 1295.512,172.792 1331.25,162.593C1501.64,114.03 1632.714,129.272 1704.401,201.066C1878.681,375.346 1704.085,867.284 1285.828,1285.646C1253.768,1317.705 1220.971,1348.608 1187.652,1378.251C1159.903,1402.953 1157.484,1445.419 1182.186,1473.168C1206.888,1500.917 1249.354,1503.441 1277.103,1478.739C1312.422,1447.414 1347.005,1414.725 1380.957,1380.773C1478.398,1283.332 1564.171,1181.583 1636.594,1079.202C1788.798,1357.551 1811.924,1596.666 1704.392,1704.222C1530.112,1878.502 1038.174,1703.907 619.812,1285.649C587.752,1253.59 556.85,1220.793 527.206,1187.474C502.505,1159.725 459.933,1157.201 432.185,1181.903C404.436,1206.604 402.017,1249.176 426.719,1276.924C458.044,1312.138 490.733,1346.827 524.685,1380.778C622.126,1478.219 723.875,1563.992 826.256,1636.415C548.23,1788.41 308.873,1811.85 201.236,1704.213C26.955,1529.933 201.551,1037.995 619.809,619.633C654.18,585.262 689.288,552.36 724.921,520.825L781.789,473.524C848.01,418.339 943.244,415.185 1012.934,465.851L1074.531,510.525C1093.242,524.085 1119.416,519.881 1132.976,501.17C1142.961,487.295 1143.592,468.796 1134.447,454.289L1091.982,387.226C1047.834,317.429 1054.247,227.032 1107.749,164.172L1156.837,106.676C1172.604,88.175 1170.397,60.319 1151.896,44.553C1138.442,33.096 1119.522,30.783 1103.753,38.561L993.277,93.219C932.207,123.492 859.571,118.341 803.336,79.765L722.188,24.159C702.742,10.81 676.254,15.75 663.01,35.197C653.339,49.282 653.024,67.781 662.169,82.183L701.48,143.886C748.572,217.676 738.586,314.17 677.409,376.712L630.213,425.065C594.37,456.81 559.157,490.027 524.678,524.503C427.237,621.944 341.464,723.693 269.04,826.075C116.941,547.833 93.711,308.61 201.243,201.054C257.795,144.502 350.82,122.743 473.268,140.613C509.953,145.869 544.115,120.432 549.475,83.641C554.836,46.851 529.293,12.795 492.503,7.434C331.572,-15.901 196.394,15.528 106.113,105.927L106.123,105.939L106.127,105.939ZM1260.287,500.643C1234.324,527.342 1234.954,569.913 1261.653,595.773C1269.747,603.656 1277.841,611.645 1285.83,619.634C1336.599,670.403 1384.428,722.96 1428.89,776.568C1452.646,805.159 1495.006,809.048 1523.597,785.398C1552.188,761.642 1556.181,719.177 1532.426,690.586C1485.335,633.823 1434.67,578.218 1380.957,524.505C1372.443,515.99 1363.929,507.581 1355.414,499.277C1328.715,473.419 1286.144,474.05 1260.285,500.644L1260.287,500.643Z" style="fill-rule:nonzero;"/>
                </g>
            </g>
        </g>
    </g>
</svg>
