<?xml version="1.0" encoding="UTF-8" standalone="no"?>
<!DOCTYPE svg PUBLIC "-//W3C//DTD SVG 1.1//EN" "http://www.w3.org/Graphics/SVG/1.1/DTD/svg11.dtd">
<svg width="100%" height="100%" viewBox="0 0 200 200" version="1.1" xmlns="http://www.w3.org/2000/svg" xmlns:xlink="http://www.w3.org/1999/xlink" xml:space="preserve" xmlns:serif="http://www.serif.com/" style="fill-rule:evenodd;clip-rule:evenodd;stroke-linejoin:round;stroke-miterlimit:2;">
    <path d="M21.886,184.247C-2.016,162.076 -3.419,124.726 18.753,100.824L94.761,18.886C116.932,-5.016 154.282,-6.419 178.184,15.753C202.085,37.924 203.488,75.274 181.316,99.176L105.308,181.115C83.137,205.016 45.787,206.419 21.886,184.247Z" style="fill:white;fill-rule:nonzero;"/>
    <path d="M18.753,100.824C-3.419,124.726 -2.016,162.076 21.886,184.247C45.787,206.419 83.137,205.016 105.308,181.115L145.81,137.452L59.255,57.162L18.753,100.824ZM40.691,123.847C41.421,122.946 41.283,121.625 40.382,120.895C39.482,120.165 38.16,120.303 37.43,121.203L34.946,124.267C34.216,125.167 34.354,126.489 35.255,127.219C36.155,127.949 37.477,127.811 38.207,126.91L40.691,123.847ZM34.553,135.781C34.765,134.641 34.014,133.545 32.874,133.332C31.735,133.12 30.639,133.871 30.426,135.01C29.281,141.142 29.701,147.239 31.492,152.718C31.852,153.82 33.037,154.421 34.139,154.061C35.24,153.701 35.842,152.516 35.482,151.414C33.916,146.623 33.533,141.24 34.553,135.781ZM39.626,160.27C38.818,159.438 37.49,159.418 36.658,160.225C35.826,161.032 35.806,162.361 36.613,163.193L40.089,166.775C40.896,167.607 42.225,167.627 43.057,166.82C43.889,166.013 43.909,164.684 43.102,163.852L39.626,160.27Z"/>
    <path d="M3.066,138.152C5.768,147.035 10.786,155.343 18.084,162.112C40.074,182.51 74.435,181.22 94.833,159.23L161.563,87.293C181.961,65.304 180.67,30.942 158.681,10.545C153.808,6.025 148.328,2.57 142.527,0.169C155.378,1.14 168.001,6.307 178.184,15.753C202.085,37.924 203.488,75.274 181.316,99.176L105.308,181.115C83.137,205.016 45.787,206.419 21.886,184.247C8.608,171.93 2.273,154.929 3.066,138.152Z" style="fill:rgb(196,196,196);"/>
    <path d="M140.341,130.232L174.776,93.109C193.598,72.819 192.407,41.114 172.117,22.293C151.827,3.472 120.122,4.662 101.301,24.952L66.865,62.074L140.341,130.232ZM181.316,99.176C203.488,75.274 202.085,37.924 178.184,15.753C154.282,-6.419 116.932,-5.016 94.761,18.886L54.259,62.548L140.814,142.838L181.316,99.176Z"/>
    <path d="M25.293,106.891L60.799,68.614L54.259,62.548L18.753,100.824C-3.419,124.726 -2.016,162.076 21.886,184.247C45.787,206.419 83.137,205.016 105.308,181.115L140.814,142.838L134.275,136.771L98.769,175.048C79.947,195.338 48.242,196.528 27.952,177.707C7.662,158.886 6.472,127.181 25.293,106.891Z"/>
</svg>
