<?xml version="1.0" encoding="UTF-8" standalone="no"?><!DOCTYPE svg PUBLIC "-//W3C//DTD SVG 1.1//EN" "http://www.w3.org/Graphics/SVG/1.1/DTD/svg11.dtd"><svg width="100%" height="100%" viewBox="0 0 476 533" version="1.1" xmlns="http://www.w3.org/2000/svg" xmlns:xlink="http://www.w3.org/1999/xlink" xml:space="preserve" xmlns:serif="http://www.serif.com/" style="fill-rule:evenodd;clip-rule:evenodd;stroke-linejoin:round;stroke-miterlimit:2;"><path d="M288.532,279.454l154.935,-101.219c16.835,-12.294 32.212,-1.542 32.212,24.502l0,155.022c0,26.044 -15.377,56.756 -32.212,67.464l-154.935,102.804c-16.92,12.294 -32.212,0 -32.212,-24.545l0,-156.437c0,-26.129 15.292,-55.257 32.212,-67.594l0,0.002Zm-87.469,-35.21l-141.184,-90.596c-21.46,-12.251 -19.918,-35.253 3.041,-50.588l138.146,-90.51c22.96,-15.334 58.298,-16.92 78.259,-3.084l141.14,90.51c21.46,12.294 19.918,35.339 -3.041,50.631l-138.102,90.51c-21.545,15.377 -58.341,16.877 -78.259,3.127l0,-0Zm-15.42,35.21l-153.389,-101.219c-16.877,-12.294 -32.255,-1.542 -32.255,24.502l0,155.022c0,26.044 15.334,56.756 32.255,67.464l153.389,102.804c18.462,12.294 32.212,0 32.212,-24.545l0.043,-156.437c0,-26.129 -13.793,-55.257 -32.255,-67.594l-0,0.002Z" style="fill:#8754ff;"/></svg>