<?xml version="1.0" encoding="UTF-8" standalone="no"?><!DOCTYPE svg PUBLIC "-//W3C//DTD SVG 1.1//EN" "http://www.w3.org/Graphics/SVG/1.1/DTD/svg11.dtd"><svg width="100%" height="100%" viewBox="0 0 1000 1000" version="1.1" xmlns="http://www.w3.org/2000/svg" xmlns:xlink="http://www.w3.org/1999/xlink" xml:space="preserve" xmlns:serif="http://www.serif.com/" style="fill-rule:evenodd;clip-rule:evenodd;stroke-linejoin:round;stroke-miterlimit:2;"><path d="M1000,166.886l0,666.227c0,92.107 -74.779,166.886 -166.886,166.886l-666.227,0c-92.107,0 -166.886,-74.779 -166.886,-166.886l0,-666.227c0,-92.107 74.779,-166.886 166.886,-166.886l666.227,0c92.107,0 166.886,74.779 166.886,166.886Z"/><path d="M567.591,517.372l206.58,-134.959c22.446,-16.392 42.949,-2.056 42.949,32.669l0,206.697c0,34.725 -20.503,75.675 -42.949,89.953l-206.58,137.072c-22.56,16.392 -42.949,0 -42.949,-32.726l0,-208.583c0,-34.839 20.389,-73.677 42.949,-90.125l0,0.003Zm-116.626,-46.946l-188.245,-120.794c-28.613,-16.335 -26.558,-47.003 4.055,-67.451l184.195,-120.68c30.613,-20.446 77.731,-22.56 104.345,-4.112l188.186,120.68c28.613,16.392 26.558,47.119 -4.055,67.508l-184.136,120.68c-28.727,20.503 -77.788,22.503 -104.345,4.169l0,-0Zm-20.56,46.946l-204.518,-134.959c-22.503,-16.392 -43.006,-2.056 -43.006,32.669l0,206.697c0,34.725 20.446,75.675 43.006,89.953l204.518,137.072c24.616,16.392 42.949,0 42.949,-32.726l0.057,-208.583c0,-34.839 -18.39,-73.677 -43.006,-90.125l-0,0.003Z" style="fill:#fff;"/></svg>